<?xml version="1.0" encoding="utf-8"?>
<!-- Generator: Adobe Illustrator 22.0.1, SVG Export Plug-In . SVG Version: 6.00 Build 0)  -->
<svg version="1.2" baseProfile="tiny" id="Layer_1" xmlns="http://www.w3.org/2000/svg" xmlns:xlink="http://www.w3.org/1999/xlink"
	 x="0px" y="0px" viewBox="0 0 96 96" xml:space="preserve">
<path fill="none" stroke="#00AEEF" stroke-miterlimit="10" d="M94,47.6c0,25.7-20.8,46.5-46.5,46.5C21.8,94.1,1,73.3,1,47.6
	C1,22,21.8,1.1,47.5,1.1C73.2,1.1,94,22,94,47.6"/>
<g>
	<path fill="#FFFFFF" d="M31.2,38.6c-4.9,0-8.8,4-8.8,8.8c0,4.9,4,8.8,8.8,8.8c4.9,0,8.8-4,8.8-8.8C40.1,42.6,36.1,38.6,31.2,38.6z
		 M31.2,52.8c-2.9,0-5.3-2.4-5.3-5.3c0-2.9,2.4-5.3,5.3-5.3c2.9,0,5.3,2.4,5.3,5.3C36.6,50.4,34.2,52.8,31.2,52.8z"/>
	<circle fill="#E60088" cx="31.2" cy="47.4" r="5.3"/>
	<path fill="#00ADEF" d="M45.7,44.7h-1.8c-0.3-1.6-1-3-1.8-4.3l1.3-1.3c0.3-0.3,0.3-0.7,0-0.9l-2.9-2.9c-0.3-0.3-0.7-0.3-0.9,0
		l-1.3,1.3c-1.3-0.8-2.8-1.5-4.3-1.8V33c0-0.4-0.3-0.6-0.6-0.6h-4.1c-0.4,0-0.6,0.3-0.6,0.6v1.8c-1.6,0.3-3,1-4.3,1.8l-1.3-1.3
		c-0.3-0.3-0.7-0.3-0.9,0l-2.9,2.9c-0.3,0.3-0.3,0.7,0,0.9l1.3,1.3c-0.8,1.3-1.5,2.8-1.8,4.3h-1.8c-0.4,0-0.6,0.3-0.6,0.6v4.1
		c0,0.4,0.3,0.6,0.6,0.6h1.8c0.3,1.6,1,3,1.8,4.3l-1.3,1.3c-0.3,0.3-0.3,0.7,0,0.9l2.9,2.9c0.3,0.3,0.7,0.3,0.9,0l1.3-1.3
		c1.3,0.8,2.8,1.5,4.3,1.8v1.8c0,0.4,0.3,0.6,0.6,0.6h4.1c0.4,0,0.6-0.3,0.6-0.6v-1.8c1.6-0.3,3-1,4.3-1.8l1.3,1.3
		c0.3,0.3,0.7,0.3,0.9,0l2.9-2.9c0.3-0.3,0.3-0.7,0-0.9l-1.3-1.3c0.8-1.3,1.5-2.8,1.8-4.3h1.8c0.4,0,0.6-0.3,0.6-0.6v-4.1
		C46.3,45,46.1,44.7,45.7,44.7z M31.2,57.3c-5.4,0-9.8-4.4-9.8-9.8c0-5.4,4.4-9.8,9.8-9.8c5.4,0,9.8,4.4,9.8,9.8
		C41.1,52.9,36.7,57.3,31.2,57.3z"/>
	<path fill="#E60088" d="M31.2,37.6c-5.4,0-9.8,4.4-9.8,9.8c0,5.4,4.4,9.8,9.8,9.8c5.4,0,9.8-4.4,9.8-9.8
		C41.1,42,36.7,37.6,31.2,37.6z M31.2,56.3c-4.9,0-8.8-4-8.8-8.8c0-4.9,4-8.8,8.8-8.8c4.9,0,8.8,4,8.8,8.8
		C40.1,52.3,36.1,56.3,31.2,56.3z"/>
	<path fill="#231F20" d="M42.1,21h27.7c1.8,0,3.2,1.4,3.2,3.2v48.4c0,1.8-1.4,3.2-3.2,3.2H42.1c-1.8,0-3.2-1.4-3.2-3.2V24.2
		C38.9,22.4,40.3,21,42.1,21z"/>
	<path fill="#231F20" d="M42.1,19h27.7c1.8,0,3.2,1.4,3.2,3.2v48.4c0,1.8-1.4,3.2-3.2,3.2H42.1c-1.8,0-3.2-1.4-3.2-3.2V22.2
		C38.9,20.4,40.3,19,42.1,19z"/>
	<g>
		<path fill="#FFFFFF" d="M42.9,64.8V25.3c0-0.3,0.3-0.5,0.6-0.5h25c0.3,0,0.6,0.2,0.6,0.5v39.5c0,0.3-0.3,0.5-0.6,0.5h-25
			C43.1,65.3,42.9,65.1,42.9,64.8z"/>
		<circle fill="#FFFFFF" cx="55.9" cy="69.8" r="2.7"/>
		<path fill="#FFFFFF" d="M50.8,21.2H61c0.5,0,0.9,0.4,0.9,0.9c0,0.5-0.4,0.9-0.9,0.9H50.8c-0.5,0-0.9-0.4-0.9-0.9
			C49.9,21.6,50.3,21.2,50.8,21.2z"/>
	</g>
	<polygon fill="#000A04" points="50.5,47.8 44.9,42.2 44.9,44.2 33,44.2 33,51.4 44.9,51.4 44.9,53.4 	"/>
	<polygon fill="#FFF200" points="50.5,47.1 44.9,41.5 44.9,43.5 33,43.5 33,50.7 44.9,50.7 44.9,52.7 	"/>
	<rect x="45.8" y="58.4" fill="#EC008B" width="5.3" height="5.3"/>
	<rect x="53.3" y="58.4" fill="#FFF200" width="5.3" height="5.3"/>
	<rect x="60.8" y="58.4" fill="#00AEEF" width="5.3" height="5.3"/>
	<rect x="53.3" y="50.1" fill="#FFFFFF" width="5.3" height="5.3"/>
	<rect x="60.8" y="50.1" fill="#EC008B" width="5.3" height="5.3"/>
	<rect x="53.3" y="41.8" fill="#FFF200" width="5.3" height="5.3"/>
	<rect x="60.8" y="41.8" fill="#27A2DB" width="5.3" height="5.3"/>
</g>
<g>
</g>
<g>
</g>
<g>
</g>
<g>
</g>
<g>
</g>
<g>
</g>
<g>
</g>
<g>
</g>
<g>
</g>
<g>
</g>
<g>
</g>
<g>
</g>
<g>
</g>
<g>
</g>
<g>
</g>
</svg>
