<?xml version="1.0" encoding="utf-8"?>
<!-- Generator: Adobe Illustrator 22.0.1, SVG Export Plug-In . SVG Version: 6.00 Build 0)  -->
<svg version="1.2" baseProfile="tiny" id="Layer_1" xmlns="http://www.w3.org/2000/svg" xmlns:xlink="http://www.w3.org/1999/xlink"
	 x="0px" y="0px" viewBox="0 0 96 96" xml:space="preserve">
<path fill="none" stroke="#00AEEF" stroke-miterlimit="10" d="M94,47.6c0,25.7-20.8,46.5-46.5,46.5C21.8,94.1,1,73.3,1,47.6
	C1,22,21.8,1.1,47.5,1.1C73.2,1.1,94,22,94,47.6"/>
<g>
	<path fill="#231F20" d="M74.4,29.1h-52c-1.3,0-2.4,1.1-2.4,2.4v34.9c0,1.3,1.1,2.4,2.4,2.4h52c1.3,0,2.4-1.1,2.4-2.4V31.5
		C76.8,30.2,75.7,29.1,74.4,29.1z"/>
	<rect x="23.5" y="32.7" fill="#FFFFFF" width="49.7" height="29.1"/>
	<rect x="37.5" y="68.8" fill="#FFF200" width="21.6" height="6.4"/>
	<rect x="31" y="75.2" fill="#231F20" width="34.8" height="1.5"/>
	<rect x="37.5" y="68.8" fill="#EC008C" width="21.6" height="1.8"/>
	<path fill="#231F20" d="M74.2,54.5H61.7c-0.7,0-1.2,0.5-1.2,1.2v19.9c0,0.7,0.5,1.2,1.2,1.2h12.4c0.7,0,1.2-0.5,1.2-1.2V55.7
		C75.3,55.1,74.9,54.5,74.2,54.5z"/>
	<rect x="62.4" y="57.8" fill="#FFFFFF" width="11.2" height="15.1"/>
	<polygon fill="#00AEEF" points="62.3,72.9 73.6,57.7 73.6,72.9 	"/>
	<g>
		<path fill="#ED1E79" d="M69.8,55.6h-3.7c-0.1,0-0.2,0.1-0.2,0.2c0,0.1,0.1,0.2,0.2,0.2h3.7c0.1,0,0.2-0.1,0.2-0.2
			C70,55.7,69.9,55.6,69.8,55.6z"/>
		<circle fill="#ED1E79" cx="67.9" cy="74.5" r="0.8"/>
	</g>
	<ellipse fill="#F2F2F2" cx="48.4" cy="65.3" rx="1.4" ry="1.4"/>
	<path fill="#00AEEF" d="M62.1,29.9c0-0.2,0-0.5,0-0.7c0-5.1-4.1-9.2-9.2-9.2c-3,0-5.6,1.4-7.3,3.5c-0.6-0.1-1.3-0.2-1.9-0.2
		c-3.7,0-6.7,2.6-7.5,6c-2.2,0.5-3.9,2.5-3.9,5c0,2.8,2.2,5.1,5.1,5.1h22.1c2.8,0,5.1-2.2,5.1-5.1C64.5,32.4,63.5,30.9,62.1,29.9z"
		/>
	<path fill="#231F20" d="M59.7,42v-3.8l-1.9-0.7c-0.2-0.8-0.5-1.5-0.9-2.2l0.8-1.8L55,30.8l-1.8,0.8c-0.7-0.4-1.4-0.7-2.2-0.9
		l-0.7-1.9h-3.8l-0.7,1.9c-0.8,0.2-1.5,0.5-2.2,0.9l-1.8-0.8L39,33.5l0.8,1.8c-0.4,0.7-0.7,1.4-0.9,2.2L37,38.2V42l1.9,0.7
		c0.2,0.8,0.5,1.5,0.9,2.2L39,46.7l2.7,2.7l1.8-0.8c0.7,0.4,1.4,0.7,2.2,0.9l0.7,1.9h3.8l0.7-1.9c0.8-0.2,1.5-0.5,2.2-0.9l1.8,0.8
		l2.7-2.7L56.9,45c0.4-0.7,0.7-1.4,0.9-2.2L59.7,42z M53,40.1c0,2.6-2.1,4.6-4.6,4.6c-2.6,0-4.6-2-4.6-4.6c0-2.6,2.1-4.6,4.6-4.6
		C51,35.5,53,37.5,53,40.1z"/>
	<path fill="#FFF200" d="M53.4,35.1c-2.7-2.7-7.1-2.7-9.8,0c-2.7,2.7-2.7,7.1,0,9.8c2.7,2.7,7.1,2.7,9.8,0
		C56.1,42.4,56.1,37.9,53.4,35.1z M51.7,43.4c-1.8,1.8-4.7,1.8-6.5,0c-1.8-1.8-1.8-4.7,0-6.5c1.8-1.8,4.7-1.8,6.5,0
		C53.5,38.7,53.5,41.5,51.7,43.4z"/>
</g>
<g>
</g>
<g>
</g>
<g>
</g>
<g>
</g>
<g>
</g>
<g>
</g>
<g>
</g>
<g>
</g>
<g>
</g>
<g>
</g>
<g>
</g>
<g>
</g>
<g>
</g>
<g>
</g>
<g>
</g>
</svg>
