<?xml version="1.0" encoding="utf-8"?>
<!-- Generator: Adobe Illustrator 22.0.1, SVG Export Plug-In . SVG Version: 6.00 Build 0)  -->
<svg version="1.2" baseProfile="tiny" id="Layer_1" xmlns="http://www.w3.org/2000/svg" xmlns:xlink="http://www.w3.org/1999/xlink"
	 x="0px" y="0px" viewBox="0 0 96 96" xml:space="preserve">
<path fill="none" stroke="#00AEEF" stroke-miterlimit="10" d="M94,47.6c0,25.7-20.8,46.5-46.5,46.5C21.8,94.1,1,73.3,1,47.6
	C1,22,21.8,1.1,47.5,1.1C73.2,1.1,94,22,94,47.6"/>
<g>
	<path fill="#231F20" d="M75.5,28.4h-55c-1.4,0-2.5,1.1-2.5,2.5v36.9c0,1.4,1.1,2.5,2.5,2.5h55c1.4,0,2.5-1.1,2.5-2.5V30.9
		C78,29.5,76.9,28.4,75.5,28.4z"/>
	<rect x="21.8" y="32.1" fill="#FFFFFF" width="52.5" height="30.8"/>
	<rect x="36.5" y="70.4" fill="#FFF200" width="22.9" height="6.8"/>
	<rect x="29.6" y="77.1" fill="#231F20" width="36.8" height="1.6"/>
	<rect x="36.5" y="70.4" fill="#EC008C" width="22.9" height="1.9"/>
	<path fill="#231F20" d="M75.3,55.3H62.1c-0.8,0-1.3,0.5-1.3,1.3v21c0,0.8,0.5,1.3,1.3,1.3h13.1c0.8,0,1.3-0.5,1.3-1.3v-21
		C76.5,55.9,76,55.3,75.3,55.3z"/>
	<rect x="62.8" y="58.7" fill="#FFFFFF" width="11.9" height="16"/>
	<polygon fill="#00AEEF" points="62.8,74.6 74.6,58.6 74.6,74.6 	"/>
	<g>
		<path fill="#ED1E79" d="M70.6,56.4h-3.9c-0.1,0-0.3,0.1-0.3,0.3s0.1,0.3,0.3,0.3h3.9c0.1,0,0.3-0.1,0.3-0.3S70.8,56.4,70.6,56.4z"
			/>
		<circle fill="#ED1E79" cx="68.6" cy="76.4" r="0.9"/>
	</g>
	<ellipse fill="#F2F2F2" cx="48" cy="66.6" rx="1.5" ry="1.5"/>
	<path fill="#00AEEF" d="M62.5,29.3c0-0.2,0-0.5,0-0.8c0-5.4-4.4-9.8-9.8-9.8c-3.1,0-5.9,1.5-7.8,3.8c-0.6-0.1-1.4-0.3-2-0.3
		c-3.9,0-7.1,2.8-7.9,6.4c-2.4,0.5-4.1,2.6-4.1,5.2c0,3,2.4,5.4,5.4,5.4h23.4c3,0,5.4-2.4,5.4-5.4C65,31.9,64,30.3,62.5,29.3z"/>
	<path fill="#231F20" d="M60,42v-4l-2-0.8c-0.3-0.9-0.5-1.6-1-2.4l0.9-1.9L55,30.1L53.1,31c-0.8-0.4-1.5-0.8-2.4-1L50,28h-4l-0.8,2
		c-0.9,0.3-1.6,0.5-2.4,1L41,30.1L38.1,33l0.9,1.9c-0.4,0.8-0.8,1.5-1,2.4L36,38v4l2,0.8c0.3,0.9,0.5,1.6,1,2.4L38.1,47l2.9,2.9
		l1.9-0.9c0.8,0.4,1.5,0.8,2.4,1l0.8,2h4l0.8-2c0.9-0.3,1.6-0.5,2.4-1l1.9,0.9l2.9-2.9L57,45.1c0.4-0.8,0.8-1.5,1-2.4L60,42z
		 M52.9,40c0,2.8-2.3,4.9-4.9,4.9c-2.8,0-4.9-2.1-4.9-4.9c0-2.8,2.3-4.9,4.9-4.9C50.8,35.1,52.9,37.3,52.9,40z"/>
	<path fill="#FFF200" d="M53.3,34.8c-2.9-2.9-7.5-2.9-10.4,0c-2.9,2.9-2.9,7.5,0,10.4c2.9,2.9,7.5,2.9,10.4,0
		C56.1,42.4,56.1,37.6,53.3,34.8z M51.5,43.5c-1.9,1.9-5,1.9-6.9,0s-1.9-5,0-6.9s5-1.9,6.9,0S53.4,41.5,51.5,43.5z"/>
</g>
<g>
</g>
<g>
</g>
<g>
</g>
<g>
</g>
<g>
</g>
<g>
</g>
<g>
</g>
<g>
</g>
<g>
</g>
<g>
</g>
<g>
</g>
<g>
</g>
<g>
</g>
<g>
</g>
<g>
</g>
</svg>
