<?xml version="1.0" encoding="utf-8"?>
<!-- Generator: Adobe Illustrator 22.0.1, SVG Export Plug-In . SVG Version: 6.00 Build 0)  -->
<svg version="1.2" baseProfile="tiny" id="Layer_1" xmlns="http://www.w3.org/2000/svg" xmlns:xlink="http://www.w3.org/1999/xlink"
	 x="0px" y="0px" viewBox="0 0 96 96" xml:space="preserve">
<path fill="none" stroke="#00AEEF" stroke-miterlimit="10" d="M94,47.6c0,25.7-20.8,46.5-46.5,46.5C21.8,94.1,1,73.3,1,47.6
	C1,22,21.8,1.1,47.5,1.1C73.2,1.1,94,22,94,47.6"/>
<g>
	<g>
		<path fill="#FBD303" d="M31.2,66.5l4.5,1.9l-0.2,2.4L31.2,66.5z M31.2,66.5"/>
		<path fill="#00AEEF" d="M23.9,54.3l-8,5.7c-0.4,0.3-0.5,0.8-0.2,1.1l6.3,8.9c0.3,0.4,0.8,0.5,1.1,0.2l8-5.7
			c0.4-0.3,0.5-0.8,0.2-1.1l-6.3-8.9C24.8,54.1,24.3,54,23.9,54.3L23.9,54.3z M23.9,54.3"/>
		<path fill="#FBD303" d="M15.5,63.6c-0.5,0.4-0.6,1.1-0.3,1.6l2.9,4.1c0.4,0.5,1.1,0.6,1.6,0.3l1.3-0.9l-4.2-6L15.5,63.6z
			 M15.5,63.6"/>
		<path fill="#231F20" d="M45.3,59.9l-14.1,3.3l-6-8.5L33,42.6L45.3,59.9z M45.3,59.9"/>
		<path fill="#EC008C" d="M33.2,40.8c-0.5,0.4-0.6,1.1-0.3,1.6l12.5,17.7c0.4,0.5,1.1,0.6,1.6,0.3c0.5-0.4,0.6-1.1,0.3-1.6
			L34.7,41.1C34.4,40.6,33.7,40.5,33.2,40.8L33.2,40.8z M33.2,40.8"/>
		<path fill="#231F20" d="M38.9,73.5L35,76.3l-11-6.6l6.2-4.4L38.9,73.5z M38.9,73.5"/>
		<path fill="#231F20" d="M23.5,57.3l-4.6,3.3c-0.3,0.2-0.3,0.6-0.1,0.9c0.2,0.3,0.6,0.4,0.9,0.2l4.6-3.3c0.3-0.2,0.3-0.6,0.1-0.9
			C24.1,57.3,23.8,57.2,23.5,57.3L23.5,57.3z M23.5,57.3"/>
		<path fill="#231F20" d="M25.5,60.1l-4.6,3.3c-0.3,0.2-0.3,0.6-0.1,0.9c0.2,0.3,0.6,0.4,0.9,0.2l4.6-3.3c0.3-0.2,0.3-0.6,0.1-0.9
			C26.1,60,25.7,59.9,25.5,60.1L25.5,60.1z M25.5,60.1"/>
		<path fill="#231F20" d="M27.4,62.9l-4.6,3.3c-0.3,0.2-0.3,0.6-0.1,0.9c0.2,0.3,0.6,0.4,0.9,0.2l4.6-3.3c0.3-0.2,0.3-0.6,0.1-0.9
			C28.1,62.8,27.7,62.7,27.4,62.9L27.4,62.9z M27.4,62.9"/>
	</g>
	<g>
		<ellipse transform="matrix(0.8482 -0.5297 0.5297 0.8482 -3.477 35.9674)" fill="#FFF200" cx="61" cy="24" rx="7.3" ry="7.4"/>
		<ellipse fill="#FFFFFF" cx="61" cy="24" rx="4.4" ry="4.4"/>
		
			<ellipse transform="matrix(0.8482 -0.5297 0.5297 0.8482 -11.9601 45.3824)" fill="#EC008C" cx="73.2" cy="43.6" rx="7.3" ry="7.4"/>
		<g>
			<path fill="#231F20" d="M59.3,31.1l-0.6,1.1l-2.4,4.4c-1-0.9-2.2-1.5-3.4-1.9l2.4-4.4l0.6-1.1C56.8,30.2,58.1,30.8,59.3,31.1z"/>
			<path fill="#231F20" d="M66.1,41.9c-0.3,1.3-0.3,2.7,0.2,4l-1.3,0L59.9,46c0.2-1.3,0.1-2.7-0.2-4l5.1-0.1L66.1,41.9z"/>
		</g>
		<g>
			<path fill="#231F20" d="M59.3,31.1l-0.6,1.1c-1.2-0.3-2.5-1-3.4-1.9l0.6-1.1C56.8,30.2,58.1,30.8,59.3,31.1z"/>
			<path fill="#231F20" d="M66.1,41.9c-0.3,1.3-0.3,2.7,0.2,4l-1.3,0c-0.4-1.3-0.4-2.7-0.2-4L66.1,41.9z"/>
		</g>
		<ellipse fill="#FFFFFF" cx="73.2" cy="43.6" rx="4.4" ry="4.4"/>
		
			<ellipse transform="matrix(0.3711 -0.9286 0.9286 0.3711 -18.633 98.6524)" fill="#00AEEF" cx="63.5" cy="63.1" rx="7.4" ry="7.3"/>
		<path fill="#231F20" d="M60.7,56.4c-1.2,0.5-2.3,1.4-3.1,2.5l-0.8-1l-3.1-4.1c1.2-0.6,2.2-1.5,3.1-2.5l3.1,4.1L60.7,56.4z"/>
		<ellipse fill="#FFFFFF" cx="63.5" cy="63.1" rx="4.4" ry="4.4"/>
		<ellipse transform="matrix(0.3092 -0.951 0.951 0.3092 -3.0969 50.7861)" fill="#00AEEF" cx="33.4" cy="27.5" rx="7.4" ry="7.3"/>
		<path fill="#231F20" d="M36.7,34.1c1.2-0.6,2.2-1.5,2.9-2.7l0.9,0.9l3.4,3.8c-1.1,0.7-2.1,1.6-2.9,2.7L37.5,35L36.7,34.1z"/>
		<ellipse fill="#FFFFFF" cx="33.4" cy="27.5" rx="4.4" ry="4.4"/>
		
			<ellipse transform="matrix(0.8482 -0.5297 0.5297 0.8482 -15.9469 33.1441)" fill="#231F20" cx="49.8" cy="44.4" rx="10.2" ry="10.3"/>
		
			<ellipse transform="matrix(0.8482 -0.5297 0.5297 0.8482 -15.9469 33.144)" fill="#FFFFFF" cx="49.8" cy="44.4" rx="6.5" ry="6.6"/>
	</g>
</g>
<g>
</g>
<g>
</g>
<g>
</g>
<g>
</g>
<g>
</g>
<g>
</g>
<g>
</g>
<g>
</g>
<g>
</g>
<g>
</g>
<g>
</g>
<g>
</g>
<g>
</g>
<g>
</g>
<g>
</g>
</svg>
